<mxfile host="app.diagrams.net" modified="2022-10-30T00:38:05.996Z" agent="5.0 (Windows NT 10.0; Win64; x64) AppleWebKit/537.36 (KHTML, like Gecko) Chrome/105.0.0.0 Safari/537.36 OPR/91.0.4516.95" etag="VlOD3yirD6I7ZGzGrEZf" version="20.5.1" type="github">
  <diagram id="C5RBs43oDa-KdzZeNtuy" name="Page-1">
    <mxGraphModel dx="3463" dy="2462" grid="1" gridSize="10" guides="1" tooltips="1" connect="1" arrows="1" fold="1" page="1" pageScale="1" pageWidth="827" pageHeight="1169" math="0" shadow="0">
      <root>
        <mxCell id="WIyWlLk6GJQsqaUBKTNV-0" />
        <mxCell id="WIyWlLk6GJQsqaUBKTNV-1" parent="WIyWlLk6GJQsqaUBKTNV-0" />
        <mxCell id="zkfFHV4jXpPFQw0GAbJ--0" value="Energy" style="swimlane;fontStyle=2;align=center;verticalAlign=top;childLayout=stackLayout;horizontal=1;startSize=26;horizontalStack=0;resizeParent=1;resizeLast=0;collapsible=1;marginBottom=0;rounded=0;shadow=0;strokeWidth=1;" parent="WIyWlLk6GJQsqaUBKTNV-1" vertex="1">
          <mxGeometry x="80" y="-20" width="160" height="138" as="geometry">
            <mxRectangle x="230" y="140" width="160" height="26" as="alternateBounds" />
          </mxGeometry>
        </mxCell>
        <mxCell id="PPG_uBXrcYmSxtkC1iqq-10" style="edgeStyle=orthogonalEdgeStyle;rounded=0;orthogonalLoop=1;jettySize=auto;html=1;entryX=0.5;entryY=0;entryDx=0;entryDy=0;endArrow=diamondThin;endFill=0;strokeWidth=1;targetPerimeterSpacing=0;shadow=0;endSize=18;" parent="WIyWlLk6GJQsqaUBKTNV-1" source="zkfFHV4jXpPFQw0GAbJ--6" target="zkfFHV4jXpPFQw0GAbJ--0" edge="1">
          <mxGeometry relative="1" as="geometry" />
        </mxCell>
        <mxCell id="zkfFHV4jXpPFQw0GAbJ--6" value="Сontroller" style="swimlane;fontStyle=0;align=center;verticalAlign=top;childLayout=stackLayout;horizontal=1;startSize=26;horizontalStack=0;resizeParent=1;resizeLast=0;collapsible=1;marginBottom=0;rounded=0;shadow=0;strokeWidth=1;" parent="WIyWlLk6GJQsqaUBKTNV-1" vertex="1">
          <mxGeometry x="80" y="-300" width="160" height="138" as="geometry">
            <mxRectangle x="130" y="380" width="160" height="26" as="alternateBounds" />
          </mxGeometry>
        </mxCell>
        <mxCell id="-bCxtE6lu1IJR3IvDW0a-6" style="edgeStyle=orthogonalEdgeStyle;rounded=0;orthogonalLoop=1;jettySize=auto;html=1;entryX=0.5;entryY=1;entryDx=0;entryDy=0;shadow=0;fontSize=13;endArrow=block;endFill=0;endSize=17;targetPerimeterSpacing=0;strokeWidth=1;" parent="WIyWlLk6GJQsqaUBKTNV-1" source="zkfFHV4jXpPFQw0GAbJ--17" target="-bCxtE6lu1IJR3IvDW0a-1" edge="1">
          <mxGeometry relative="1" as="geometry" />
        </mxCell>
        <mxCell id="zkfFHV4jXpPFQw0GAbJ--17" value="Main" style="swimlane;fontStyle=0;align=center;verticalAlign=top;childLayout=stackLayout;horizontal=1;startSize=26;horizontalStack=0;resizeParent=1;resizeLast=0;collapsible=1;marginBottom=0;rounded=0;shadow=0;strokeWidth=1;" parent="WIyWlLk6GJQsqaUBKTNV-1" vertex="1">
          <mxGeometry x="460" y="-40" width="160" height="140" as="geometry">
            <mxRectangle x="550" y="140" width="160" height="26" as="alternateBounds" />
          </mxGeometry>
        </mxCell>
        <mxCell id="-bCxtE6lu1IJR3IvDW0a-0" value="&lt;span style=&quot;text-align: start; background-color: rgb(255, 255, 255);&quot;&gt;&lt;font style=&quot;&quot;&gt;&lt;font face=&quot;-apple-system, BlinkMacSystemFont, Arial, sans-serif&quot; color=&quot;#111111&quot;&gt;Агрегация – это когда экземпляр двигателя создается где-то в другом месте кода, и передается в конструктор автомобиля в качестве параметра.&lt;/font&gt;&lt;br&gt;&lt;font face=&quot;-apple-system, BlinkMacSystemFont, Arial, sans-serif&quot; color=&quot;#111111&quot;&gt;Одна машина может соответствовать нескольким пассажирам. Кроме того, если всех пассажиров высадить из машины, она продолжит спокойно функционировать.&lt;/font&gt;&lt;br&gt;&lt;/font&gt;&lt;/span&gt;" style="text;html=1;align=center;verticalAlign=middle;resizable=0;points=[];autosize=1;strokeColor=none;fillColor=none;" parent="WIyWlLk6GJQsqaUBKTNV-1" vertex="1">
          <mxGeometry x="-95" y="160" width="940" height="40" as="geometry" />
        </mxCell>
        <mxCell id="-bCxtE6lu1IJR3IvDW0a-1" value="Application" style="swimlane;fontStyle=0;align=center;verticalAlign=top;childLayout=stackLayout;horizontal=1;startSize=26;horizontalStack=0;resizeParent=1;resizeLast=0;collapsible=1;marginBottom=0;rounded=0;shadow=0;strokeWidth=1;" parent="WIyWlLk6GJQsqaUBKTNV-1" vertex="1">
          <mxGeometry x="460" y="-310" width="160" height="140" as="geometry">
            <mxRectangle x="550" y="140" width="160" height="26" as="alternateBounds" />
          </mxGeometry>
        </mxCell>
        <mxCell id="-bCxtE6lu1IJR3IvDW0a-3" value="Наследование" style="text;html=1;strokeColor=none;fillColor=none;align=center;verticalAlign=middle;whiteSpace=wrap;rounded=0;" parent="WIyWlLk6GJQsqaUBKTNV-1" vertex="1">
          <mxGeometry x="580" y="-130" width="60" height="30" as="geometry" />
        </mxCell>
        <mxCell id="-bCxtE6lu1IJR3IvDW0a-4" value="агрегация" style="text;html=1;strokeColor=none;fillColor=none;align=center;verticalAlign=middle;whiteSpace=wrap;rounded=0;" parent="WIyWlLk6GJQsqaUBKTNV-1" vertex="1">
          <mxGeometry x="190" y="-120" width="60" height="30" as="geometry" />
        </mxCell>
        <mxCell id="-bCxtE6lu1IJR3IvDW0a-5" value="&lt;span style=&quot;color: rgb(17, 17, 17); font-family: -apple-system, BlinkMacSystemFont, Arial, sans-serif; font-size: 13px; text-align: start; background-color: rgb(255, 255, 255);&quot;&gt;Наследование — это когда класс-наследник имеет все поля и методы родительского класса, и, как правило, добавляет какой-то новый функционал или/и поля.&amp;nbsp;&lt;/span&gt;&lt;font face=&quot;-apple-system, BlinkMacSystemFont, Arial, sans-serif&quot; color=&quot;#111111&quot;&gt;&lt;span style=&quot;font-size: 13px;&quot;&gt;Наследование описывает связь «является» (или по-английски «IS A»). Лев является Животным.&lt;/span&gt;&lt;/font&gt;" style="text;html=1;strokeColor=none;fillColor=none;align=center;verticalAlign=middle;whiteSpace=wrap;rounded=0;fontSize=12;" parent="WIyWlLk6GJQsqaUBKTNV-1" vertex="1">
          <mxGeometry x="-220" y="200" width="880" height="30" as="geometry" />
        </mxCell>
        <mxCell id="mNFi2NnfCw2oL1sG_BXH-0" value="&lt;div style=&quot;text-align: start;&quot;&gt;&lt;font face=&quot;-apple-system, BlinkMacSystemFont, Arial, sans-serif&quot; color=&quot;#111111&quot;&gt;&lt;span style=&quot;font-size: 13px;&quot;&gt;Композиция — более строгий тип связи. При использовании композиции объект не только является частью какого-то объекта, но и не может принадлежать другому объекту того же типа.&amp;nbsp;&lt;/span&gt;&lt;/font&gt;&lt;/div&gt;&lt;div style=&quot;text-align: start;&quot;&gt;&lt;font face=&quot;-apple-system, BlinkMacSystemFont, Arial, sans-serif&quot; color=&quot;#111111&quot;&gt;&lt;span style=&quot;font-size: 13px;&quot;&gt;&lt;br&gt;&lt;/span&gt;&lt;/font&gt;&lt;/div&gt;&lt;div style=&quot;text-align: start;&quot;&gt;&lt;font face=&quot;-apple-system, BlinkMacSystemFont, Arial, sans-serif&quot; color=&quot;#111111&quot;&gt;&lt;span style=&quot;font-size: 13px;&quot;&gt;Самый простой пример — двигатель автомобиля. Двигатель является частью автомобиля, но не может быть частью другого автомобиля.&lt;/span&gt;&lt;/font&gt;&lt;/div&gt;" style="text;html=1;strokeColor=none;fillColor=none;align=center;verticalAlign=middle;whiteSpace=wrap;rounded=0;fontSize=12;" parent="WIyWlLk6GJQsqaUBKTNV-1" vertex="1">
          <mxGeometry x="-200" y="270" width="880" height="30" as="geometry" />
        </mxCell>
      </root>
    </mxGraphModel>
  </diagram>
</mxfile>
